<svg width="26" height="40" viewBox="0 0 26 40" fill="none" xmlns="http://www.w3.org/2000/svg">
<g clip-path="url(#clip0_515_17)">
<path fill-rule="evenodd" clip-rule="evenodd" d="M18.4702 2.95761C18.774 3.33465 18.9288 3.84343 19.2386 4.86102L26.0056 27.0907C23.5036 25.7927 20.7838 24.8566 17.9153 24.3516L13.5093 9.46243C13.4372 9.2188 13.2135 9.05168 12.9594 9.05168C12.7047 9.05168 12.4805 9.21968 12.409 9.46415L8.05637 24.3441C5.17462 24.8469 2.44234 25.7846 -0.0703125 27.0873L6.72987 4.85587H6.72991C7.04062 3.84005 7.19597 3.33215 7.49972 2.95578C7.76784 2.62353 8.11662 2.36549 8.51278 2.20625C8.96153 2.02588 9.49266 2.02588 10.5549 2.02588H15.412C16.4757 2.02588 17.0075 2.02588 17.4566 2.20663C17.8532 2.36619 18.2021 2.62475 18.4702 2.95761Z" fill="#4B5563"/>
<path fill-rule="evenodd" clip-rule="evenodd" d="M19.2796 28.1486C18.164 29.1025 15.9374 29.753 13.3727 29.753C10.2248 29.753 7.58636 28.773 6.88623 27.455C6.63595 28.2104 6.57983 29.0749 6.57983 29.6271C6.57983 29.6271 6.41492 32.3388 8.30101 34.225C8.30101 33.2456 9.09495 32.4519 10.0743 32.4519C11.7529 32.4519 11.751 33.9163 11.7495 35.1044C11.7494 35.14 11.7494 35.1753 11.7494 35.2103C11.7494 37.0138 12.8516 38.5597 14.4191 39.2116C14.185 38.73 14.0537 38.1891 14.0537 37.6178C14.0537 35.8978 15.0635 35.2572 16.237 34.5128C17.1708 33.9206 18.2083 33.2628 18.9233 31.9428C19.2963 31.2541 19.5082 30.4654 19.5082 29.6271C19.5082 29.1117 19.4281 28.6149 19.2796 28.1486Z" fill="#4B5563"/>
</g>
<defs>
<clipPath id="clip0_515_17">
<rect width="26" height="40" fill="white"/>
</clipPath>
</defs>
</svg>
