<svg width="33" height="38" viewBox="0 0 33 38" fill="none" xmlns="http://www.w3.org/2000/svg">
<g clip-path="url(#clip0_515_28)">
<path opacity="0.6" d="M11.1811 26.205C9.2215 24.3607 8.06882 21.8247 8.06882 18.943C8.06882 16.0613 9.2215 13.5254 11.0658 11.6811C12.6796 10.0673 12.6796 7.53139 11.0658 5.91763C9.45204 4.30386 6.91613 4.30386 5.30236 5.91763C2.07484 9.26043 0 13.8712 0 18.943C0 24.0148 2.07484 28.6256 5.41763 31.9684C7.0314 33.5822 9.56731 33.5822 11.1811 31.9684C12.6796 30.3546 12.6796 27.8187 11.1811 26.205Z" fill="#4B5563"/>
<path opacity="0.9" d="M11.1808 11.6811C13.0251 9.72151 15.561 8.56882 18.4427 8.56882C21.3244 8.56882 23.8604 9.72151 25.7047 11.5658C27.3184 13.1796 29.8543 13.1796 31.4681 11.5658C33.0819 9.95204 33.0819 7.41613 31.4681 5.80237C28.1253 2.57484 23.5146 0.5 18.4427 0.5C13.3709 0.5 8.76015 2.57484 5.41735 5.91764C3.80359 7.5314 3.80359 10.0673 5.41735 11.6811C7.03112 13.1796 9.56703 13.1796 11.1808 11.6811Z" fill="#4B5563"/>
<path opacity="0.9" d="M25.7047 26.205C23.8604 28.1645 21.3244 29.3172 18.4427 29.3172C15.561 29.3172 13.0251 28.1645 11.1808 26.3202C9.56703 24.7065 7.03112 24.7065 5.41735 26.3202C3.80359 27.934 3.80359 30.4699 5.41735 32.0837C8.76015 35.3112 13.3709 37.386 18.4427 37.386C23.5146 37.386 28.1253 35.3112 31.4681 31.9684C33.0819 30.3546 33.0819 27.8187 31.4681 26.205C29.8543 24.7065 27.3184 24.7065 25.7047 26.205Z" fill="#4B5563"/>
<path d="M8.29906 12.8338C10.5272 12.8338 12.3335 11.0275 12.3335 8.79936C12.3335 6.57122 10.5272 4.76495 8.29906 4.76495C6.07092 4.76495 4.26465 6.57122 4.26465 8.79936C4.26465 11.0275 6.07092 12.8338 8.29906 12.8338Z" fill="#4B5563"/>
<path d="M8.29906 33.1211C10.5272 33.1211 12.3335 31.3148 12.3335 29.0867C12.3335 26.8585 10.5272 25.0523 8.29906 25.0523C6.07092 25.0523 4.26465 26.8585 4.26465 29.0867C4.26465 31.3148 6.07092 33.1211 8.29906 33.1211Z" fill="#4B5563"/>
</g>
<defs>
<clipPath id="clip0_515_28">
<rect width="32.7751" height="37" fill="white" transform="translate(0 0.5)"/>
</clipPath>
</defs>
</svg>
