<svg width="77" height="32" viewBox="0 0 77 32" fill="none" xmlns="http://www.w3.org/2000/svg">
<path d="M2.92935 0H74.0707C75.6885 0 77 1.31633 77 2.94011V28.9811C77 30.6049 75.6885 31.9212 74.0707 31.9212H2.92935C1.31151 31.9212 0 30.6049 0 28.9811V2.94011C0 1.31633 1.31151 0 2.92935 0ZM2.92935 0.840033C1.77375 0.840033 0.836957 1.78027 0.836957 2.94011V28.9811C0.836957 30.141 1.77375 31.0812 2.92935 31.0812H74.0707C75.2262 31.0812 76.163 30.141 76.163 28.9811V2.94011C76.163 1.78027 75.2262 0.840033 74.0707 0.840033H2.92935Z" fill="#4B5563"/>
<path d="M41.0113 6.06839L41.0111 18.8828L45.7009 14.1767L48.068 16.5528L39.3992 25.2528L30.6211 16.4424L32.9884 14.0664L37.6632 18.7585L37.6634 6.06839H41.0113Z" fill="#4B5563"/>
<path d="M10.8527 24.6006V14.6765L16.9066 20.7531L23.0064 14.6313V24.5004H26.3543V6.51962L16.9068 16.0011L7.50488 6.56401V24.6006H10.8527Z" fill="#4B5563"/>
<path d="M67.3522 5.53226L69.7194 7.90827L62.6285 15.0248L69.5012 21.923L67.134 24.299L60.2611 17.401L53.3881 24.299L51.0209 21.923L57.893 15.0248L50.8027 7.90827L53.17 5.53226L60.2611 12.6487L67.3522 5.53226Z" fill="#4B5563"/>
</svg>
