<svg width="39" height="38" viewBox="0 0 39 38" fill="none" xmlns="http://www.w3.org/2000/svg">
<path fill-rule="evenodd" clip-rule="evenodd" d="M7.8962 6.76256C9.07203 7.71787 9.51313 7.64499 11.7212 7.49766L32.5372 6.24775C32.9787 6.24775 32.6116 5.80732 32.4643 5.73414L29.0072 3.23492C28.3448 2.72063 27.4623 2.13168 25.7708 2.27901L5.61467 3.74913C4.87957 3.82202 4.73276 4.18957 5.02549 4.48416L7.8962 6.76256ZM9.14596 11.6137V33.5158C9.14596 34.6929 9.73417 35.1332 11.0581 35.0604L33.9349 33.7367C35.2594 33.6639 35.407 32.8542 35.407 31.898V10.1429C35.407 9.18829 35.0397 8.67349 34.2289 8.74697L10.3225 10.1429C9.44017 10.2171 9.14588 10.6584 9.14588 11.6137H9.14596ZM31.7299 12.7886C31.8765 13.4507 31.7299 14.1123 31.0665 14.1867L29.9643 14.4063V30.5758C29.0072 31.0902 28.1247 31.3843 27.3893 31.3843C26.2119 31.3843 25.9171 31.0165 25.0351 29.9147L17.8252 18.5959V29.5471L20.1067 30.0619C20.1067 30.0619 20.1067 31.3843 18.266 31.3843L13.1915 31.6786C13.0441 31.3843 13.1915 30.6499 13.7063 30.5028L15.0305 30.1358V15.6562L13.1919 15.5088C13.0444 14.8467 13.4117 13.892 14.4423 13.8179L19.886 13.451L27.3893 24.9171V14.7738L25.4762 14.5543C25.3294 13.7448 25.9171 13.157 26.6527 13.0842L31.7299 12.7886ZM3.92232 1.7648L24.888 0.220821C27.4626 9.30253e-06 28.125 0.147936 29.7432 1.32339L36.4357 6.02724C37.54 6.83611 37.9081 7.05633 37.9081 7.93809V33.7367C37.9081 35.3535 37.319 36.3097 35.2598 36.456L10.9124 37.9263C9.36654 38 8.63085 37.7797 7.8213 36.7501L2.89286 30.3557C2.00983 29.1786 1.64258 28.298 1.64258 27.2678V4.3363C1.64258 3.01411 2.23176 1.91116 3.92232 1.7648V1.7648Z" fill="#4B5563"/>
</svg>
