<svg width="135" height="28" viewBox="0 0 135 28" fill="none" xmlns="http://www.w3.org/2000/svg">
<g clip-path="url(#clip0_515_37)">
<path d="M100.612 10.1021V26.934H95.1455V7.46625L100.612 10.1021Z" fill="#6B7280"/>
<path d="M23.248 23.8086L27.3478 27.3482L44.6197 18.4239L42.8356 14.1689L23.248 23.8086ZM95.1449 12.9639L109.038 5.80942L106.685 1.7803L95.1449 7.46625V12.9639Z" fill="#4B5563"/>
<path d="M56.0458 8.78418V26.934H50.8073V1.06485L56.0458 8.78418ZM23.248 23.8086L27.3478 27.3482L35.2435 7.76748L32.7002 1.06485L23.248 23.8086Z" fill="#6B7280"/>
<path d="M32.7002 1.06485H38.0906L48.0741 26.934H42.5319L32.7002 1.06485ZM56.843 1.06485L68.345 18.7252V26.934L50.8073 1.06485H56.843ZM78.2146 1.06485H83.643V26.934H78.2146V1.06485ZM95.145 5.80941H86.7937V1.06485H106.267L109.038 5.80941H100.611H95.145Z" fill="#9CA3AF"/>
<path d="M125.095 17.106V26.934H119.705V17.106" fill="#4B5563"/>
<path d="M128.816 1.06485L119.705 17.106H125.095L134.548 1.06485H128.816Z" fill="#9CA3AF"/>
<path d="M119.705 17.106L110.291 1.06485H116.213L122.552 12.0602L119.705 17.106Z" fill="#6B7280"/>
<path d="M3.01548 4.07727C3.01548 7.65452 5.25514 9.80087 9.73446 10.9305L14.4795 12.0225C18.7311 13.0016 21.3124 15.4115 21.3124 19.3277C21.3503 21.0221 20.7809 22.679 19.756 24.0346C19.756 20.1184 17.7061 18.0097 12.8093 16.7294L8.14013 15.6751C4.38206 14.8467 1.49707 12.8509 1.49707 8.5959C1.49707 6.97673 2.02852 5.35755 3.01548 4.07727Z" fill="#9CA3AF"/>
<path d="M68.3447 17.4072V1.06485H73.5833V26.934H68.3447V17.4072Z" fill="#6B7280"/>
<path d="M16.8329 18.3486C18.8448 19.6289 19.7558 21.4363 19.7558 24.0346C18.0476 26.1809 15.1247 27.3482 11.6703 27.3482C5.86233 27.3482 1.72465 24.4864 0.851562 19.5536H6.43173C7.15298 21.8129 9.051 22.8672 11.6323 22.8672C14.7071 22.9049 16.7949 21.2481 16.8329 18.3486ZM3.0153 4.03961C4.6476 1.93091 7.45666 0.650635 10.8731 0.650635C16.8329 0.650635 20.2493 3.77602 21.1224 8.14403H15.732C15.1247 6.41189 13.6442 5.0563 10.949 5.0563C8.02607 5.09396 6.05213 6.75079 5.93825 9.38666C3.98216 8.31656 2.93938 6.22361 3.0153 4.03961Z" fill="#6B7280"/>
</g>
<defs>
<clipPath id="clip0_515_37">
<rect width="134" height="27" fill="white" transform="translate(0.775391 0.5)"/>
</clipPath>
</defs>
</svg>
