<svg width="36" height="36" viewBox="0 0 36 36" fill="none" xmlns="http://www.w3.org/2000/svg">
<path d="M35.0903 5.30418L18.9344 34.6228C18.6008 35.2282 17.7438 35.2317 17.4053 34.6293L0.929 5.30701C0.560146 4.65057 1.11326 3.85544 1.84624 3.9884L18.0195 6.9222C18.1226 6.94092 18.2283 6.94074 18.3314 6.92166L34.1664 3.9926C34.897 3.85748 35.4527 4.64645 35.0903 5.30418Z" fill="#4B5563"/>
<path d="M25.7237 0.140287L13.7678 2.51778C13.5713 2.55686 13.4258 2.72586 13.414 2.92868L12.6785 15.5343C12.6612 15.8313 12.9299 16.0617 13.2155 15.9949L16.5441 15.2152C16.8556 15.1424 17.137 15.4207 17.073 15.7386L16.084 20.6532C16.0175 20.984 16.3235 21.2668 16.6418 21.1687L18.6977 20.5348C19.0165 20.4366 19.3227 20.7202 19.2553 21.0513L17.6837 28.771C17.5853 29.2539 18.2182 29.5172 18.4822 29.1032L18.6585 28.8267L28.4008 9.09552C28.5639 8.76515 28.2826 8.38844 27.9251 8.45846L24.4987 9.12956C24.1767 9.19256 23.9028 8.88825 23.9937 8.56855L26.23 0.701004C26.3209 0.380769 26.046 0.0761982 25.7237 0.140287Z" fill="url(#paint0_linear_515_14)"/>
<defs>
<linearGradient id="paint0_linear_515_14" x1="17.0912" y1="0.785772" x2="20.8351" y2="26.0922" gradientUnits="userSpaceOnUse">
<stop stop-color="#BEC3CB"/>
<stop offset="1" stop-color="#87909E"/>
</linearGradient>
</defs>
</svg>
