<svg width="139" height="24" viewBox="0 0 139 24" fill="none" xmlns="http://www.w3.org/2000/svg">
<circle cx="12" cy="12" r="12" fill="#7C3AED"/>
<path d="M12.3179 17.9964C11.1279 17.9964 10.1042 17.7442 9.24698 17.24C8.39478 16.7307 7.73924 16.0247 7.28036 15.1221C6.82653 14.2195 6.59961 13.1807 6.59961 12.0058C6.59961 10.8157 6.82905 9.77187 7.28793 8.87429C7.75185 7.97166 8.40991 7.26822 9.26211 6.76395C10.1143 6.25465 11.1279 6 12.3028 6C13.3164 6 14.2039 6.18405 14.9653 6.55216C15.7267 6.92028 16.3293 7.43714 16.7731 8.10277C17.2168 8.76839 17.4614 9.55 17.5068 10.4476H14.4661C14.3804 9.86768 14.1534 9.40124 13.7853 9.04826C13.4223 8.69023 12.9457 8.51122 12.3558 8.51122C11.8565 8.51122 11.4203 8.64737 11.0472 8.91967C10.6791 9.18693 10.3917 9.57773 10.1849 10.0921C9.97816 10.6064 9.87479 11.2292 9.87479 11.9604C9.87479 12.7016 9.97564 13.332 10.1773 13.8513C10.3841 14.3707 10.674 14.7666 11.0472 15.0389C11.4203 15.3112 11.8565 15.4473 12.3558 15.4473C12.7239 15.4473 13.0542 15.3717 13.3466 15.2204C13.6441 15.0691 13.8887 14.8498 14.0803 14.5624C14.277 14.2699 14.4056 13.9194 14.4661 13.511H17.5068C17.4564 14.3985 17.2143 15.1801 16.7806 15.8558C16.352 16.5265 15.7595 17.0509 15.0031 17.4291C14.2467 17.8073 13.3517 17.9964 12.3179 17.9964Z" fill="white"/>
<path d="M47.2784 9.9375H44.7898C44.7443 9.61553 44.6515 9.32955 44.5114 9.07955C44.3712 8.82576 44.1913 8.60985 43.9716 8.43182C43.7519 8.25379 43.4981 8.11742 43.2102 8.02273C42.9261 7.92803 42.6174 7.88068 42.2841 7.88068C41.6818 7.88068 41.1572 8.0303 40.7102 8.32955C40.2633 8.625 39.9167 9.05682 39.6705 9.625C39.4242 10.1894 39.3011 10.875 39.3011 11.6818C39.3011 12.5114 39.4242 13.2083 39.6705 13.7727C39.9205 14.3371 40.2689 14.7633 40.7159 15.0511C41.1629 15.339 41.6799 15.483 42.267 15.483C42.5966 15.483 42.9015 15.4394 43.1818 15.3523C43.4659 15.2652 43.7178 15.1383 43.9375 14.9716C44.1572 14.8011 44.339 14.5947 44.483 14.3523C44.6307 14.1098 44.733 13.8333 44.7898 13.5227L47.2784 13.5341C47.214 14.0682 47.053 14.5833 46.7955 15.0795C46.5417 15.572 46.1989 16.0133 45.767 16.4034C45.339 16.7898 44.8277 17.0966 44.233 17.3239C43.642 17.5473 42.9735 17.6591 42.2273 17.6591C41.1894 17.6591 40.2614 17.4242 39.4432 16.9545C38.6288 16.4848 37.9848 15.8049 37.5114 14.9148C37.0417 14.0246 36.8068 12.947 36.8068 11.6818C36.8068 10.4129 37.0455 9.33333 37.5227 8.44318C38 7.55303 38.6477 6.875 39.4659 6.40909C40.2841 5.93939 41.2045 5.70455 42.2273 5.70455C42.9015 5.70455 43.5265 5.79924 44.1023 5.98864C44.6818 6.17803 45.1951 6.45455 45.642 6.81818C46.089 7.17803 46.4527 7.61932 46.733 8.14205C47.017 8.66477 47.1989 9.26326 47.2784 9.9375ZM52.9403 17.6705C52.0578 17.6705 51.2945 17.483 50.6506 17.108C50.0104 16.7292 49.5161 16.2027 49.1676 15.5284C48.8191 14.8504 48.6449 14.0644 48.6449 13.1705C48.6449 12.2689 48.8191 11.4811 49.1676 10.8068C49.5161 10.1288 50.0104 9.60227 50.6506 9.22727C51.2945 8.84848 52.0578 8.65909 52.9403 8.65909C53.8229 8.65909 54.5843 8.84848 55.2244 9.22727C55.8684 9.60227 56.3646 10.1288 56.7131 10.8068C57.0616 11.4811 57.2358 12.2689 57.2358 13.1705C57.2358 14.0644 57.0616 14.8504 56.7131 15.5284C56.3646 16.2027 55.8684 16.7292 55.2244 17.108C54.5843 17.483 53.8229 17.6705 52.9403 17.6705ZM52.9517 15.7955C53.3532 15.7955 53.6884 15.6818 53.9574 15.4545C54.2263 15.2235 54.429 14.9091 54.5653 14.5114C54.7055 14.1136 54.7756 13.661 54.7756 13.1534C54.7756 12.6458 54.7055 12.1932 54.5653 11.7955C54.429 11.3977 54.2263 11.0833 53.9574 10.8523C53.6884 10.6212 53.3532 10.5057 52.9517 10.5057C52.5464 10.5057 52.2055 10.6212 51.929 10.8523C51.6563 11.0833 51.4498 11.3977 51.3097 11.7955C51.1733 12.1932 51.1051 12.6458 51.1051 13.1534C51.1051 13.661 51.1733 14.1136 51.3097 14.5114C51.4498 14.9091 51.6563 15.2235 51.929 15.4545C52.2055 15.6818 52.5464 15.7955 52.9517 15.7955ZM61.2301 12.4545V17.5H58.8097V8.77273H61.1165V10.3125H61.2188C61.4119 9.80492 61.7358 9.40341 62.1903 9.10795C62.6449 8.80871 63.196 8.65909 63.8438 8.65909C64.4498 8.65909 64.9782 8.79167 65.429 9.05682C65.8797 9.32197 66.2301 9.70076 66.4801 10.1932C66.7301 10.6818 66.8551 11.2652 66.8551 11.9432V17.5H64.4347V12.375C64.4384 11.8409 64.3021 11.4242 64.0256 11.125C63.7491 10.822 63.3684 10.6705 62.8835 10.6705C62.5578 10.6705 62.2699 10.7405 62.0199 10.8807C61.7737 11.0208 61.5805 11.2254 61.4403 11.4943C61.304 11.7595 61.2339 12.0795 61.2301 12.4545ZM73.4048 8.77273V10.5909H68.1491V8.77273H73.4048ZM69.3423 6.68182H71.7628V14.8182C71.7628 15.0417 71.7969 15.2159 71.8651 15.3409C71.9332 15.4621 72.0279 15.5473 72.1491 15.5966C72.2741 15.6458 72.4181 15.6705 72.581 15.6705C72.6946 15.6705 72.8082 15.661 72.9219 15.642C73.0355 15.6193 73.1226 15.6023 73.1832 15.5909L73.5639 17.392C73.4427 17.4299 73.2723 17.4735 73.0526 17.5227C72.8329 17.5758 72.5658 17.608 72.2514 17.6193C71.6681 17.642 71.1567 17.5644 70.7173 17.3864C70.2817 17.2083 69.9427 16.9318 69.7003 16.5568C69.4579 16.1818 69.3385 15.7083 69.3423 15.1364V6.68182ZM78.8651 17.6705C77.9673 17.6705 77.1946 17.4886 76.5469 17.125C75.9029 16.7576 75.4067 16.2386 75.0582 15.5682C74.7098 14.8939 74.5355 14.0966 74.5355 13.1761C74.5355 12.2784 74.7098 11.4905 75.0582 10.8125C75.4067 10.1345 75.8973 9.60606 76.5298 9.22727C77.1662 8.84848 77.9124 8.65909 78.7685 8.65909C79.3442 8.65909 79.8802 8.75189 80.3764 8.9375C80.8764 9.11932 81.312 9.39394 81.6832 9.76136C82.0582 10.1288 82.3499 10.5909 82.5582 11.1477C82.7666 11.7008 82.8707 12.3485 82.8707 13.0909V13.7557H75.5014V12.2557H80.5923C80.5923 11.9072 80.5166 11.5985 80.3651 11.3295C80.2135 11.0606 80.0033 10.8504 79.7344 10.6989C79.4692 10.5436 79.1605 10.4659 78.8082 10.4659C78.4408 10.4659 78.1151 10.5511 77.831 10.7216C77.5507 10.8883 77.331 11.1136 77.1719 11.3977C77.0128 11.678 76.9313 11.9905 76.9276 12.3352V13.7614C76.9276 14.1932 77.0071 14.5663 77.1662 14.8807C77.3291 15.1951 77.5582 15.4375 77.8537 15.608C78.1491 15.7784 78.4995 15.8636 78.9048 15.8636C79.1738 15.8636 79.42 15.8258 79.6435 15.75C79.867 15.6742 80.0582 15.5606 80.2173 15.4091C80.3764 15.2576 80.4976 15.072 80.581 14.8523L82.8196 15C82.706 15.5379 82.473 16.0076 82.1207 16.4091C81.7723 16.8068 81.3215 17.1174 80.7685 17.3409C80.2192 17.5606 79.5848 17.6705 78.8651 17.6705ZM86.8707 12.4545V17.5H84.4503V8.77273H86.7571V10.3125H86.8594C87.0526 9.80492 87.3764 9.40341 87.831 9.10795C88.2855 8.80871 88.8366 8.65909 89.4844 8.65909C90.0904 8.65909 90.6188 8.79167 91.0696 9.05682C91.5204 9.32197 91.8707 9.70076 92.1207 10.1932C92.3707 10.6818 92.4957 11.2652 92.4957 11.9432V17.5H90.0753V12.375C90.0791 11.8409 89.9427 11.4242 89.6662 11.125C89.3897 10.822 89.009 10.6705 88.5241 10.6705C88.1984 10.6705 87.9105 10.7405 87.6605 10.8807C87.4143 11.0208 87.2211 11.2254 87.081 11.4943C86.9446 11.7595 86.8745 12.0795 86.8707 12.4545ZM99.0455 8.77273V10.5909H93.7898V8.77273H99.0455ZM94.983 6.68182H97.4034V14.8182C97.4034 15.0417 97.4375 15.2159 97.5057 15.3409C97.5739 15.4621 97.6686 15.5473 97.7898 15.5966C97.9148 15.6458 98.0587 15.6705 98.2216 15.6705C98.3352 15.6705 98.4489 15.661 98.5625 15.642C98.6761 15.6193 98.7633 15.6023 98.8239 15.5909L99.2045 17.392C99.0833 17.4299 98.9129 17.4735 98.6932 17.5227C98.4735 17.5758 98.2064 17.608 97.892 17.6193C97.3087 17.642 96.7973 17.5644 96.358 17.3864C95.9223 17.2083 95.5833 16.9318 95.3409 16.5568C95.0985 16.1818 94.9792 15.7083 94.983 15.1364V6.68182ZM103.23 5.86364V17.5H100.81V5.86364H103.23ZM107.658 17.6648C107.101 17.6648 106.605 17.5682 106.169 17.375C105.733 17.178 105.389 16.8883 105.135 16.5057C104.885 16.1193 104.76 15.6383 104.76 15.0625C104.76 14.5777 104.849 14.1705 105.027 13.8409C105.205 13.5114 105.447 13.2462 105.754 13.0455C106.061 12.8447 106.41 12.6932 106.8 12.5909C107.194 12.4886 107.607 12.4167 108.038 12.375C108.546 12.322 108.955 12.2727 109.266 12.2273C109.576 12.178 109.802 12.1061 109.942 12.0114C110.082 11.9167 110.152 11.7765 110.152 11.5909V11.5568C110.152 11.197 110.038 10.9186 109.811 10.7216C109.588 10.5246 109.269 10.4261 108.857 10.4261C108.421 10.4261 108.074 10.5227 107.817 10.7159C107.559 10.9053 107.389 11.1439 107.305 11.4318L105.067 11.25C105.18 10.7197 105.404 10.2614 105.737 9.875C106.071 9.48485 106.5 9.18561 107.027 8.97727C107.557 8.76515 108.171 8.65909 108.868 8.65909C109.353 8.65909 109.817 8.71591 110.26 8.82955C110.707 8.94318 111.103 9.11932 111.447 9.35795C111.796 9.59659 112.071 9.90341 112.271 10.2784C112.472 10.6496 112.572 11.0947 112.572 11.6136V17.5H110.277V16.2898H110.209C110.069 16.5625 109.881 16.803 109.646 17.0114C109.411 17.2159 109.129 17.3769 108.8 17.4943C108.47 17.608 108.089 17.6648 107.658 17.6648ZM108.351 15.9943C108.707 15.9943 109.021 15.9242 109.294 15.7841C109.567 15.6402 109.781 15.447 109.936 15.2045C110.091 14.9621 110.169 14.6875 110.169 14.3807V13.4545C110.093 13.5038 109.989 13.5492 109.857 13.5909C109.728 13.6288 109.582 13.6648 109.419 13.6989C109.256 13.7292 109.093 13.7576 108.93 13.7841C108.768 13.8068 108.62 13.8277 108.487 13.8466C108.203 13.8883 107.955 13.9545 107.743 14.0455C107.531 14.1364 107.366 14.2595 107.249 14.4148C107.131 14.5663 107.072 14.7557 107.072 14.983C107.072 15.3125 107.192 15.5644 107.43 15.7386C107.673 15.9091 107.98 15.9943 108.351 15.9943ZM115.632 20.7727C115.325 20.7727 115.037 20.7481 114.768 20.6989C114.503 20.6534 114.284 20.5947 114.109 20.5227L114.655 18.7159C114.939 18.803 115.195 18.8504 115.422 18.858C115.653 18.8655 115.852 18.8125 116.018 18.6989C116.189 18.5852 116.327 18.392 116.433 18.1193L116.575 17.75L113.445 8.77273H115.99L117.797 15.1818H117.888L119.712 8.77273H122.274L118.882 18.4432C118.719 18.9129 118.498 19.322 118.217 19.6705C117.941 20.0227 117.59 20.2936 117.166 20.483C116.742 20.6761 116.231 20.7727 115.632 20.7727ZM127.209 17.6705C126.311 17.6705 125.538 17.4886 124.891 17.125C124.247 16.7576 123.75 16.2386 123.402 15.5682C123.054 14.8939 122.879 14.0966 122.879 13.1761C122.879 12.2784 123.054 11.4905 123.402 10.8125C123.75 10.1345 124.241 9.60606 124.874 9.22727C125.51 8.84848 126.256 8.65909 127.112 8.65909C127.688 8.65909 128.224 8.75189 128.72 8.9375C129.22 9.11932 129.656 9.39394 130.027 9.76136C130.402 10.1288 130.694 10.5909 130.902 11.1477C131.11 11.7008 131.214 12.3485 131.214 13.0909V13.7557H123.845V12.2557H128.936C128.936 11.9072 128.86 11.5985 128.709 11.3295C128.557 11.0606 128.347 10.8504 128.078 10.6989C127.813 10.5436 127.504 10.4659 127.152 10.4659C126.785 10.4659 126.459 10.5511 126.175 10.7216C125.894 10.8883 125.675 11.1136 125.516 11.3977C125.357 11.678 125.275 11.9905 125.271 12.3352V13.7614C125.271 14.1932 125.351 14.5663 125.51 14.8807C125.673 15.1951 125.902 15.4375 126.197 15.608C126.493 15.7784 126.843 15.8636 127.249 15.8636C127.518 15.8636 127.764 15.8258 127.987 15.75C128.211 15.6742 128.402 15.5606 128.561 15.4091C128.72 15.2576 128.841 15.072 128.925 14.8523L131.163 15C131.05 15.5379 130.817 16.0076 130.464 16.4091C130.116 16.8068 129.665 17.1174 129.112 17.3409C128.563 17.5606 127.929 17.6705 127.209 17.6705ZM132.794 17.5V8.77273H135.141V10.2955H135.232C135.391 9.75379 135.658 9.3447 136.033 9.06818C136.408 8.78788 136.839 8.64773 137.328 8.64773C137.449 8.64773 137.58 8.6553 137.72 8.67045C137.86 8.68561 137.983 8.70644 138.089 8.73295V10.8807C137.976 10.8466 137.819 10.8163 137.618 10.7898C137.417 10.7633 137.233 10.75 137.067 10.75C136.711 10.75 136.393 10.8277 136.112 10.983C135.836 11.1345 135.616 11.3466 135.453 11.6193C135.294 11.892 135.214 12.2064 135.214 12.5625V17.5H132.794Z" fill="#1F2937"/>
</svg>
